name D:\school\WTK\thesis\model\3dpredictsim\Results\test_WL_v2\Fal_s1_bCst_PF_Gefen2001_ls135_k_nonl90_Mmtp_ig24_v4.mot
datacolumns 128
datarows 4
range 1.83876177 1.87553700
endheader
time	pelvis_tilt	pelvis_list	pelvis_rotation	pelvis_tx	pelvis_ty	pelvis_tz	hip_flexion_l	hip_adduction_l	hip_rotation_l	hip_flexion_r	hip_adduction_r	hip_rotation_r	knee_angle_l	knee_angle_r	ankle_angle_l	ankle_angle_r	subtalar_angle_l	subtalar_angle_r	tmt_angle_l	tmt_angle_r	mtp_angle_l	mtp_angle_r	lumbar_extension	lumbar_bending	lumbar_rotation	arm_flex_l	arm_add_l	arm_rot_l	arm_flex_r	arm_add_r	arm_rot_r	elbow_flex_l	elbow_flex_r	pro_sup_l	pro_sup_r	glut_med1_l/activation	glut_med2_l/activation	glut_med3_l/activation	glut_min1_l/activation	glut_min2_l/activation	glut_min3_l/activation	semimem_l/activation	semiten_l/activation	bifemlh_l/activation	bifemsh_l/activation	sar_l/activation	add_long_l/activation	add_brev_l/activation	add_mag1_l/activation	add_mag2_l/activation	add_mag3_l/activation	tfl_l/activation	pect_l/activation	grac_l/activation	glut_max1_l/activation	glut_max2_l/activation	glut_max3_l/activation	iliacus_l/activation	psoas_l/activation	quad_fem_l/activation	gem_l/activation	peri_l/activation	rect_fem_l/activation	vas_med_l/activation	vas_int_l/activation	vas_lat_l/activation	med_gas_l/activation	lat_gas_l/activation	soleus_l/activation	tib_post_l/activation	flex_dig_l/activation	flex_hal_l/activation	tib_ant_l/activation	per_brev_l/activation	per_long_l/activation	per_tert_l/activation	ext_dig_l/activation	ext_hal_l/activation	ercspn_l/activation	intobl_l/activation	extobl_l/activation	glut_med1_r/activation	glut_med2_r/activation	glut_med3_r/activation	glut_min1_r/activation	glut_min2_r/activation	glut_min3_r/activation	semimem_r/activation	semiten_r/activation	bifemlh_r/activation	bifemsh_r/activation	sar_r/activation	add_long_r/activation	add_brev_r/activation	add_mag1_r/activation	add_mag2_r/activation	add_mag3_r/activation	tfl_r/activation	pect_r/activation	grac_r/activation	glut_max1_r/activation	glut_max2_r/activation	glut_max3_r/activation	iliacus_r/activation	psoas_r/activation	quad_fem_r/activation	gem_r/activation	peri_r/activation	rect_fem_r/activation	vas_med_r/activation	vas_int_r/activation	vas_lat_r/activation	med_gas_r/activation	lat_gas_r/activation	soleus_r/activation	tib_post_r/activation	flex_dig_r/activation	flex_hal_r/activation	tib_ant_r/activation	per_brev_r/activation	per_long_r/activation	per_tert_r/activation	ext_dig_r/activation	ext_hal_r/activation	ercspn_r/activation	intobl_r/activation	extobl_r/activation	
          1.83876177	         -2.93016287	          2.73334728	         -7.88074686	          2.29845221	          0.91555590	          0.00487983	         29.30071327	          3.85880355	         -2.37645436	        -14.85396911	         -2.57165899	          6.26623769	         -9.74894473	        -14.90840145	          6.46729949	        -10.94490631	        -11.20659697	         13.98345353	         -3.95925172	         11.90977350	          5.91608443	         22.78518702	         -1.25915036	         -0.79230960	          2.58815028	         -9.63621914	        -13.63429433	          7.35098032	          5.04077371	        -13.46213853	         17.47185751	         16.37149049	         45.75917052	         86.51662706	         86.51662706	          0.05000001	          0.05000004	          0.09593470	          0.05000004	          0.05000004	          0.05000006	          0.20572267	          0.10559517	          0.12895269	          0.05000018	          0.05000021	          0.09761165	          0.21776481	          0.23908263	          0.17513569	          0.10238732	          0.05000013	          0.07251775	          0.16594459	          0.08694016	          0.13070663	          0.12243108	          0.05000005	          0.05000011	          0.55032425	          0.18379777	          0.11695147	          0.05000052	          0.06021532	          0.06021531	          0.06021531	          0.06403804	          0.06869801	          0.06021533	          0.06021549	          0.22605167	          0.16009342	          0.65085396	          0.41806307	          0.30680461	          0.25736454	          0.25005381	          0.08029134	          0.05000000	          0.11117941	          0.09996259	          0.11703545	          0.07283209	          0.05743287	          0.16407429	          0.13233176	          0.08997867	          0.05805386	          0.06021492	          0.05825673	          0.05000014	          0.08970749	          0.11011737	          0.06021497	          0.06021585	          0.06021590	          0.06021606	          0.21926933	          0.05000068	          0.05000211	          0.05446069	          0.06021559	          0.06021667	          0.37873713	          0.52188068	          0.06176833	          0.05878183	          0.05725983	          0.42796440	          0.17773788	          0.17414307	          0.16513235	          0.15809282	          0.21834802	          0.22605038	          0.17091971	          0.09019915	          0.12304559	          0.09984937	          0.05000080	          0.10580946	          0.05000036	          0.10645612	          0.10517699	          0.05000000	          0.08027227	          0.09089414	
          1.85102018	         -2.92922041	          2.84161560	         -8.17083640	          2.31806505	          0.91403427	          0.00467046	         28.43693455	          4.17007846	         -2.19721947	        -15.30956695	         -3.00993944	          6.09925501	        -10.37161053	        -15.82502776	          6.03094669	        -10.92237447	        -11.38922132	         14.63283129	         -4.21443568	          8.86081854	          4.88085919	         26.52094290	         -0.97368262	         -0.97698947	          2.69192659	        -10.75008100	        -13.59477085	          7.38352246	          4.51923572	        -13.47751935	         17.62152969	         15.93050936	         47.05921456	         86.51662706	         86.51662706	          0.25384597	          0.27069088	          0.31855530	          0.30075413	          0.27912146	          0.26612837	          0.17082251	          0.10666879	          0.10905042	          0.11270689	          0.06021692	          0.08105217	          0.18082172	          0.19852305	          0.14542454	          0.12588298	          0.05000017	          0.06021564	          0.13779279	          0.15861313	          0.14458093	          0.10166108	          0.06021530	          0.05000527	          0.45696350	          0.15261713	          0.21610876	          0.05000001	          0.05000002	          0.05000002	          0.05000002	          0.05317420	          0.05704364	          0.05000001	          0.05000014	          0.25680189	          0.15328812	          0.72396985	          0.51427636	          0.30362639	          0.53026781	          0.30690244	          0.07251772	          0.05000010	          0.15459719	          0.08300425	          0.21493483	          0.06047642	          0.06021520	          0.28202632	          0.10988218	          0.07471414	          0.05000044	          0.05000007	          0.05000006	          0.05000099	          0.07468887	          0.09143637	          0.05000026	          0.05000051	          0.05000065	          0.05000066	          0.18207124	          0.08240682	          0.05000122	          0.05000105	          0.05000076	          0.05000120	          0.31448569	          0.54571965	          0.05128969	          0.05000184	          0.05007718	          0.36851603	          0.18583308	          0.18740339	          0.16984525	          0.13127288	          0.18130597	          0.18770164	          0.14192372	          0.07490882	          0.17712383	          0.16942957	          0.13358840	          0.09251186	          0.32176782	          0.09868734	          0.08733411	          0.05417556	          0.06665433	          0.07547424	
          1.86327859	         -2.92813775	          2.94765508	         -8.40948595	          2.33765923	          0.91246156	          0.00442423	         27.64389604	          4.45406352	         -2.02687889	        -15.80281566	         -3.43421426	          5.94891967	        -11.01203658	        -16.61426214	          5.18264312	        -10.77438933	        -11.55541040	         15.16123201	         -4.20350330	          5.30056714	          3.96750130	         30.59311678	         -0.71265661	         -1.17314286	          2.78718228	        -11.78994617	        -13.55902001	          7.47267086	          3.98128931	        -13.49875484	         17.73746062	         15.46404322	         48.25296184	         86.51662706	         86.51662706	          0.35769196	          0.39445132	          0.42661547	          0.24973224	          0.23500813	          0.28630339	          0.14184303	          0.08857311	          0.09055053	          0.09358654	          0.05000139	          0.06730194	          0.15014590	          0.16484431	          0.12075390	          0.16399308	          0.05000016	          0.05000054	          0.11441676	          0.26162788	          0.21256163	          0.16819367	          0.05000002	          0.05000002	          0.37944112	          0.12672618	          0.17944675	          0.05000003	          0.06349944	          0.06501672	          0.05838727	          0.05000000	          0.05000001	          0.05000000	          0.05000002	          0.25330015	          0.19137862	          0.84556968	          0.58237096	          0.32088086	          0.74151155	          0.32398835	          0.06021534	          0.07378160	          0.12837028	          0.06892285	          0.17847376	          0.05021683	          0.05000006	          0.23418180	          0.09124106	          0.06203915	          0.05000053	          0.05000006	          0.05000005	          0.05000005	          0.06201822	          0.07953753	          0.05000083	          0.05000065	          0.05000101	          0.05000067	          0.15118348	          0.06842738	          0.05000022	          0.05000124	          0.05000072	          0.05000036	          0.26113421	          0.54518433	          0.05000007	          0.05000034	          0.05000010	          0.30599846	          0.19839550	          0.19423454	          0.15988515	          0.10900285	          0.15054799	          0.15585865	          0.11784681	          0.22436625	          0.30834836	          0.22750103	          0.15425744	          0.08142281	          0.59418596	          0.08194536	          0.07251818	          0.06908877	          0.05534664	          0.06267028	
          1.87553700	         -2.92739126	          3.06046831	         -8.59959479	          2.35699578	          0.91103801	          0.00413180	         27.05170610	          4.76468021	         -1.85884909	        -16.25842496	         -3.84446840	          5.80699526	        -11.94339904	        -17.35187890	          4.28081080	        -10.64448343	        -11.73215917	         15.58290556	         -4.09712911	          1.31949209	          3.17841023	         34.97984281	         -0.49115706	         -1.39566131	          2.87680572	        -12.71669395	        -13.52516204	          7.57094515	          3.48129680	        -13.51768567	         17.86560991	         14.97353929	         49.26980114	         86.51662706	         86.51662706	          0.44230051	          0.45012278	          0.46729850	          0.22335161	          0.20052229	          0.26246444	          0.11777983	          0.07728384	          0.07559464	          0.07770989	          0.05000012	          0.06021531	          0.12467457	          0.15635972	          0.19082879	          0.19698963	          0.05000019	          0.05000766	          0.10178014	          0.29458584	          0.25147972	          0.21569083	          0.05000006	          0.05000006	          0.31507017	          0.10522753	          0.15335364	          0.05000004	          0.12806762	          0.13433861	          0.12061010	          0.05000000	          0.05000001	          0.05000000	          0.05000000	          0.25723482	          0.18650731	          0.91093909	          0.48357359	          0.26644445	          0.76327388	          0.33260771	          0.05000010	          0.08488748	          0.10659267	          0.05723031	          0.24991930	          0.05000008	          0.05000003	          0.19445393	          0.07576235	          0.05151445	          0.05000036	          0.05000003	          0.05000003	          0.05000002	          0.05149711	          0.06604435	          0.12571951	          0.05000362	          0.05000438	          0.11484675	          0.12553571	          0.05681929	          0.05000011	          0.05000116	          0.05000082	          0.05000067	          0.21683363	          0.50903368	          0.05000005	          0.05000022	          0.05000005	          0.25408679	          0.16473834	          0.16128328	          0.13276115	          0.09051086	          0.12500800	          0.12941772	          0.09785448	          0.38055495	          0.50508038	          0.25952236	          0.17321473	          0.07629940	          0.75464287	          0.06804359	          0.06021570	          0.09623212	          0.05000000	          0.05203847	
